<?xml version="1.0" standalone="no"?>
<!DOCTYPE svg PUBLIC "-//W3C//DTD SVG 20010904//EN"
 "http://www.w3.org/TR/2001/REC-SVG-20010904/DTD/svg10.dtd">
<svg version="1.0" xmlns="http://www.w3.org/2000/svg"
 width="300.000000pt" height="221.000000pt" viewBox="0 0 300.000000 221.000000"
 preserveAspectRatio="xMidYMid meet">
<metadata>
Created by potrace 1.10, written by Peter Selinger 2001-2011
</metadata>
<g transform="translate(0.000000,221.000000) scale(0.100000,-0.100000)"
fill="#df4e2f" stroke="none">
<path d="M2270 2120 c-26 -26 -25 -42 6 -79 l26 -31 -46 0 c-25 0 -46 -4 -46
-10 0 -5 20 -10 45 -10 44 0 45 0 45 -34 0 -22 6 -36 16 -40 14 -5 16 -18 12
-81 -3 -41 -1 -72 3 -69 4 2 10 -13 12 -33 l4 -38 1 40 c2 31 5 37 13 25 9
-12 10 -12 5 3 -3 10 -6 48 -6 83 0 41 -4 63 -10 59 -5 -3 -10 -1 -10 5 0 6
10 8 28 4 22 -5 25 -4 15 7 -17 17 -16 29 1 29 7 0 19 7 26 15 9 10 9 15 1 15
-6 0 -11 7 -11 16 0 8 -4 12 -10 9 -5 -3 -10 -2 -10 3 0 5 11 10 25 10 35 0
55 19 55 53 0 40 -38 59 -73 37 -21 -15 -24 -14 -44 8 -26 29 -47 30 -73 4z
m180 -69 c0 -12 -20 -25 -27 -18 -7 7 6 27 18 27 5 0 9 -4 9 -9z m-88 -73 c-6
-25 -22 -12 -22 18 0 20 2 23 13 12 8 -7 12 -20 9 -30z"/>
<path d="M2407 1899 c12 -15 73 -53 73 -46 0 2 -19 17 -42 32 -24 16 -38 22
-31 14z"/>
<path d="M2310 1730 c0 -7 3 -10 7 -7 3 4 3 10 0 14 -4 3 -7 0 -7 -7z"/>
<path d="M2370 1720 c0 -7 3 -10 7 -7 3 4 3 10 0 14 -4 3 -7 0 -7 -7z"/>
<path d="M2300 1690 c0 -7 3 -10 7 -7 3 4 3 10 0 14 -4 3 -7 0 -7 -7z"/>
<path d="M2340 1670 c0 -7 3 -10 7 -7 3 4 3 10 0 14 -4 3 -7 0 -7 -7z"/>
<path d="M2290 1660 c0 -7 3 -10 7 -7 3 4 3 10 0 14 -4 3 -7 0 -7 -7z"/>
<path d="M2391 1644 c0 -11 3 -14 6 -6 3 7 2 16 -1 19 -3 4 -6 -2 -5 -13z"/>
<path d="M1222 1627 c-23 -24 -29 -52 -13 -61 12 -8 44 30 37 43 -4 6 5 13 20
17 19 5 22 9 12 15 -21 14 -33 11 -56 -14z"/>
<path d="M450 1631 c-45 -14 -114 -53 -158 -89 -54 -43 -124 -130 -116 -144 3
-5 -3 -18 -15 -29 -12 -11 -21 -28 -21 -39 0 -10 -4 -21 -9 -24 -10 -6 -19
-49 -27 -120 -8 -65 16 -126 58 -151 43 -25 144 -24 215 3 l51 19 6 -30 c3
-16 6 -39 6 -51 0 -34 20 -94 36 -111 24 -24 81 -19 109 10 31 30 35 71 6 55
-39 -21 -61 4 -85 99 l-16 63 60 59 c105 106 177 290 151 385 -22 79 -61 104
-156 103 -38 0 -81 -4 -95 -8z m165 -46 c22 -21 25 -33 25 -93 0 -110 -57
-244 -143 -334 -24 -26 -27 -27 -59 -14 -33 14 -84 11 -94 -5 -3 -5 8 -9 23
-9 28 0 53 -15 53 -32 0 -16 -85 -48 -128 -48 -51 0 -76 21 -93 79 -7 23 -17
41 -22 41 -5 0 -4 6 2 14 10 11 8 15 -6 19 -14 4 -13 5 5 6 15 1 22 7 22 21 0
11 -5 20 -12 20 -6 0 -9 3 -5 6 3 3 8 4 12 2 4 -1 17 24 29 57 28 76 86 165
140 211 92 81 204 107 251 59z m55 -9 c0 -3 -4 -8 -10 -11 -5 -3 -10 -1 -10 4
0 6 5 11 10 11 6 0 10 -2 10 -4z m-470 -240 c0 -11 -19 -15 -25 -6 -3 5 1 10
9 10 9 0 16 -2 16 -4z m-50 -156 c0 -5 -5 -10 -11 -10 -5 0 -7 5 -4 10 3 6 8
10 11 10 2 0 4 -4 4 -10z m0 -30 c0 -5 7 -10 15 -10 12 0 12 -3 -2 -20 -10
-11 -20 -20 -24 -20 -9 0 -19 41 -13 52 7 11 24 10 24 -2z m320 -60 c0 -5 -7
-10 -15 -10 -8 0 -15 5 -15 10 0 6 7 10 15 10 8 0 15 -4 15 -10z"/>
<path d="M2280 1620 c0 -7 3 -10 7 -7 3 4 3 10 0 14 -4 3 -7 0 -7 -7z"/>
<path d="M2342 1580 c0 -19 2 -27 5 -17 2 9 2 25 0 35 -3 9 -5 1 -5 -18z"/>
<path d="M1934 1589 c-45 -13 -105 -76 -137 -143 -15 -32 -39 -75 -52 -94 -14
-20 -25 -40 -25 -44 0 -17 16 -7 32 20 l17 27 1 -26 c0 -15 10 -39 22 -54 19
-24 26 -27 69 -23 57 6 108 41 145 99 20 33 30 39 58 39 41 0 80 30 95 72 11
32 11 32 -28 -11 -29 -31 -46 -42 -63 -39 -14 2 -22 9 -20 18 2 8 6 38 9 67 5
46 3 54 -20 77 -27 27 -50 30 -103 15z m81 -36 c16 -16 16 -18 -9 -36 -27 -19
-36 -69 -16 -82 17 -11 11 -35 -22 -85 -33 -50 -75 -77 -103 -66 -11 4 -15 20
-15 54 0 65 58 185 104 213 38 23 40 23 61 2z"/>
<path d="M2270 1580 c0 -7 3 -10 7 -7 3 4 3 10 0 14 -4 3 -7 0 -7 -7z"/>
<path d="M2410 1570 c0 -7 3 -10 7 -7 3 4 3 10 0 14 -4 3 -7 0 -7 -7z"/>
<path d="M1540 1551 c-14 -26 -13 -37 5 -54 12 -13 11 -23 -12 -80 -45 -114
-131 -207 -192 -207 -37 0 -51 17 -51 65 0 53 7 61 60 70 63 10 116 42 135 82
43 89 -51 118 -157 48 -23 -15 -38 -33 -38 -45 0 -11 -6 -20 -12 -20 -7 0 -28
-30 -47 -67 -38 -72 -96 -137 -113 -127 -17 11 -3 77 37 166 20 45 38 88 41
94 3 8 -4 10 -20 7 -14 -3 -23 -9 -20 -14 3 -5 -4 -9 -16 -9 -16 0 -30 -21
-69 -102 -45 -94 -99 -168 -123 -168 -31 0 -10 94 45 203 l34 67 -27 0 c-35 0
-46 -14 -115 -147 -79 -154 -135 -203 -135 -119 0 40 20 98 60 178 l31 60 -33
-7 c-18 -4 -43 -18 -55 -33 -44 -53 -91 -244 -69 -281 10 -16 53 -13 81 5 14
9 25 14 25 10 0 -3 -13 -38 -29 -78 -43 -111 -89 -259 -96 -315 -6 -39 -4 -53
10 -66 30 -31 107 -13 163 37 33 30 39 32 57 20 27 -18 72 4 104 52 l25 36 13
-38 c7 -22 21 -45 30 -51 39 -30 141 -5 187 46 l19 20 19 -25 c18 -23 25 -24
82 -21 34 2 76 11 93 20 31 16 113 102 113 118 0 5 5 9 10 9 6 0 8 -10 5 -23
-10 -37 11 -77 39 -77 13 0 27 7 30 16 3 8 11 12 17 9 15 -10 49 24 49 49 0
15 -3 17 -12 8 -7 -7 -20 -12 -30 -12 -47 0 9 159 78 219 37 33 81 41 90 17 6
-15 -64 -145 -99 -183 -18 -20 -18 -23 -4 -23 9 0 23 14 32 30 9 17 17 30 20
30 2 0 1 -24 -2 -52 -15 -158 110 -86 207 117 33 69 45 85 71 94 18 6 34 10
36 8 2 -2 -5 -24 -16 -48 -11 -24 -25 -72 -32 -107 -31 -162 77 -145 179 29
l32 54 -6 -45 c-3 -25 -7 -51 -10 -58 -2 -7 1 -23 6 -37 20 -53 98 -12 162 85
l17 25 0 -32 c2 -74 83 -98 173 -52 37 19 101 94 132 156 30 60 16 58 -20 -2
-61 -103 -121 -151 -175 -143 -31 4 -50 44 -40 88 6 30 11 35 46 42 77 15 85
19 120 49 61 54 43 124 -31 122 -74 -2 -142 -64 -204 -186 -33 -62 -74 -107
-99 -107 -30 0 -27 36 10 147 l30 91 40 7 c21 4 42 12 46 17 4 8 -6 9 -30 5
-46 -7 -46 0 -3 81 31 57 32 62 14 62 -27 0 -68 -46 -97 -108 -20 -43 -29 -51
-54 -54 -17 -2 -32 -8 -34 -14 -2 -7 6 -10 22 -6 24 4 25 3 15 -24 -6 -15 -29
-62 -51 -104 -45 -87 -89 -136 -114 -126 -23 8 -14 48 40 169 37 83 40 97 25
97 -9 0 -34 -13 -54 -29 -42 -34 -79 -30 -84 8 -4 27 -27 37 -47 21 -18 -15
-20 -67 -3 -72 28 -10 -67 -198 -115 -227 -54 -34 -45 47 21 182 37 75 38 77
16 77 -12 0 -36 -11 -52 -25 -26 -22 -31 -23 -42 -10 -20 24 -82 18 -125 -11
-49 -33 -64 -52 -119 -149 -44 -79 -115 -171 -100 -130 13 38 14 80 2 95 -7 9
-29 27 -48 40 -43 29 -50 39 -50 67 0 24 34 53 63 53 26 0 32 -28 11 -51 -23
-26 -7 -42 26 -26 19 9 26 22 28 49 3 33 0 38 -22 44 -41 10 -94 -5 -129 -36
-26 -23 -32 -35 -32 -70 0 -37 6 -47 37 -74 65 -55 67 -111 5 -146 -39 -22
-63 -4 -60 44 2 30 -1 36 -17 36 -11 0 -37 -18 -57 -41 -61 -67 -115 -86 -146
-51 -19 21 -22 58 -7 96 8 22 16 26 47 26 102 0 192 102 135 153 -34 31 -109
13 -166 -40 -18 -18 -61 -78 -95 -133 -64 -104 -92 -130 -116 -110 -11 9 -8
21 17 69 17 33 32 79 35 103 14 124 -82 115 -171 -16 -22 -33 -42 -54 -44 -47
-2 6 0 17 6 24 5 7 17 37 27 67 10 30 31 83 46 117 27 60 29 62 57 57 23 -5
36 1 65 26 20 17 47 48 59 68 l23 37 5 -50 c4 -44 8 -50 30 -53 21 -3 22 -2
11 12 -11 13 -11 16 2 16 9 0 19 -5 22 -11 9 -13 46 19 86 75 l29 39 0 -30 c0
-59 50 -87 129 -70 65 13 128 81 184 198 41 86 48 95 81 105 33 10 36 10 30
-5 -86 -193 -63 -321 41 -230 39 34 38 53 -2 43 -25 -7 -26 -6 -21 34 3 22 22
78 43 124 20 45 39 89 42 96 9 22 -34 13 -65 -13 -41 -34 -71 -33 -85 5 -13
34 -41 40 -57 11z m-88 -82 c-1 -13 -3 -35 -3 -49 0 -14 -3 -19 -6 -12 -4 10
-12 7 -32 -11 -30 -29 -76 -44 -85 -28 -9 14 16 60 51 92 48 45 80 48 75 8z
m-132 -58 c0 -12 -29 -35 -36 -28 -7 6 17 36 29 37 4 0 7 -4 7 -9z m-213 -72
c-14 -8 -17 -18 -12 -40 7 -30 -11 -42 -21 -14 -11 29 5 65 29 65 20 -1 20 -1
4 -11z m1572 -157 c-26 -67 -129 -123 -129 -69 0 19 69 97 94 107 31 12 47 -6
35 -38z m-1409 -178 c0 -17 -14 -40 -39 -65 -25 -25 -48 -39 -65 -39 -40 0
-33 32 17 85 51 52 87 60 87 19z m-380 -99 c0 -72 -106 -235 -144 -222 -40 13
4 144 74 218 47 50 70 51 70 4z m-153 -42 c-4 -3 -7 0 -7 7 0 7 3 10 7 7 3 -4
3 -10 0 -14z"/>
<path d="M2260 1540 c0 -7 3 -10 7 -7 3 4 3 10 0 14 -4 3 -7 0 -7 -7z"/>
<path d="M2420 1530 c0 -7 3 -10 7 -7 3 4 3 10 0 14 -4 3 -7 0 -7 -7z"/>
<path d="M2343 1470 c0 -30 2 -43 4 -27 2 15 2 39 0 55 -2 15 -4 2 -4 -28z"/>
<path d="M2250 1500 c0 -7 3 -10 7 -7 3 4 3 10 0 14 -4 3 -7 0 -7 -7z"/>
<path d="M2430 1490 c0 -7 3 -10 7 -7 3 4 3 10 0 14 -4 3 -7 0 -7 -7z"/>
<path d="M2240 1460 c0 -7 3 -10 7 -7 3 4 3 10 0 14 -4 3 -7 0 -7 -7z"/>
<path d="M2441 1454 c0 -11 3 -14 6 -6 3 7 2 16 -1 19 -3 4 -6 -2 -5 -13z"/>
<path d="M1457 665 c-389 -56 -709 -104 -711 -106 -2 -2 -6 -71 -10 -152 l-7
-149 28 6 c50 11 1401 266 1407 266 15 0 4 31 -15 41 -16 8 -18 13 -9 19 20
12 39 1 46 -26 9 -35 24 -29 25 9 0 17 4 69 7 115 l7 82 -30 -1 c-16 -1 -349
-47 -738 -104z m671 -25 c0 -21 -5 -44 -13 -50 -18 -15 -57 -9 -63 9 -3 10 2
13 22 9 14 -3 26 -1 26 3 0 5 -9 9 -20 9 -11 0 -23 7 -26 15 -12 31 -33 15
-36 -27 -4 -57 -32 -60 -36 -5 -2 24 -8 37 -18 37 -10 0 -14 -13 -14 -45 0
-37 -3 -45 -18 -45 -11 0 -24 10 -30 23 -10 22 -11 22 -11 -5 -1 -18 -6 -28
-16 -28 -11 0 -15 12 -15 49 0 59 15 73 41 40 l19 -24 0 27 c0 24 4 26 61 33
33 4 63 5 65 2 3 -3 17 1 31 8 36 19 51 9 51 -35z m-533 20 c3 -5 2 -10 -4
-10 -5 0 -13 5 -16 10 -3 6 -2 10 4 10 5 0 13 -4 16 -10z m255 -30 c0 -5 -11
-12 -25 -16 -14 -3 -25 -10 -25 -16 0 -5 9 -6 20 -3 12 4 20 2 20 -5 0 -7 -9
-14 -20 -17 -11 -3 -20 -10 -20 -15 0 -6 11 -7 25 -4 15 4 25 2 25 -4 0 -11
-7 -14 -52 -24 -27 -6 -28 -5 -29 36 l0 43 -17 -45 c-23 -59 -47 -64 -70 -12
-15 34 -20 38 -42 32 l-25 -6 23 -8 c27 -9 29 -26 2 -26 -11 0 -20 -4 -20 -10
0 -5 9 -10 20 -10 11 0 20 -4 20 -9 0 -10 -58 -23 -71 -15 -11 6 -12 91 -1 97
4 3 28 8 54 12 45 7 48 6 60 -20 l12 -26 15 33 c13 25 24 34 51 39 55 10 70
10 70 -1z m-310 -60 c0 -5 -11 -10 -25 -10 -14 0 -25 -4 -25 -10 0 -5 9 -10
20 -10 27 0 25 -16 -2 -25 -22 -8 -22 -8 5 -12 33 -5 35 -18 5 -27 -48 -12
-57 -8 -60 32 l-3 37 -14 -42 c-18 -56 -46 -63 -66 -17 -17 41 -24 43 -23 5 1
-15 -2 -33 -6 -40 -12 -20 -26 -1 -26 35 0 52 -28 46 -32 -8 -4 -56 -28 -64
-28 -9 0 34 -3 41 -20 41 -40 0 -19 19 33 29 89 18 137 18 137 0 0 -5 -4 -8
-9 -5 -5 4 -6 -4 -3 -16 5 -21 7 -20 20 14 9 23 22 38 36 41 42 8 86 7 86 -3z
m-473 -17 c-4 -3 -7 0 -7 7 0 7 3 10 7 7 3 -4 3 -10 0 -14z m146 -50 c8 -16
18 -39 22 -52 6 -21 5 -23 -17 -18 -14 4 -33 1 -44 -7 -11 -8 -41 -17 -67 -21
l-47 -7 0 50 c0 36 4 52 16 56 25 9 64 7 64 -4 0 -5 -9 -10 -19 -10 -11 0 -23
-4 -26 -10 -3 -5 3 -10 14 -10 12 0 21 -4 21 -10 0 -5 -6 -10 -14 -10 -8 0
-18 -4 -21 -10 -3 -6 4 -10 18 -10 19 0 28 9 43 43 15 35 31 56 41 57 1 0 9
-12 16 -27z m-168 -23 c3 -5 1 -18 -5 -29 -7 -13 -7 -22 0 -26 16 -10 12 -35
-5 -35 -9 0 -18 7 -22 17 -5 14 -8 13 -14 -5 -15 -40 -29 -23 -29 33 l0 55 34
0 c19 0 38 -4 41 -10z m-100 -20 c0 -8 -7 -14 -17 -14 -18 2 -32 -32 -17 -42
5 -3 9 0 9 5 0 6 7 11 15 11 18 0 20 -21 3 -38 -32 -32 -74 4 -62 53 10 40 69
62 69 25z m740 0 c3 -5 1 -10 -4 -10 -6 0 -11 5 -11 10 0 6 2 10 4 10 3 0 8
-4 11 -10z"/>
<path d="M2083 653 c4 -3 10 -3 14 0 3 4 0 7 -7 7 -7 0 -10 -3 -7 -7z"/>
<path d="M1000 460 c0 -7 3 -10 7 -7 3 4 3 10 0 14 -4 3 -7 0 -7 -7z"/>
<path d="M2262 696 c2 -36 0 -66 -4 -66 -4 0 -8 -24 -8 -54 l0 -55 -42 -9
c-35 -8 -15 -10 102 -11 l144 -1 -59 60 c-32 33 -57 61 -54 63 2 3 41 26 86
51 46 26 85 51 88 55 2 5 -44 11 -103 15 -59 4 -118 10 -131 13 -23 6 -23 5
-19 -61z m78 -22 c0 -8 -4 -12 -10 -9 -5 3 -10 10 -10 16 0 5 5 9 10 9 6 0 10
-7 10 -16z"/>
<path d="M660 497 c-65 -29 -131 -57 -199 -83 l-75 -29 87 -40 c75 -34 87 -43
82 -60 -3 -11 -7 -26 -9 -33 -1 -8 -8 -17 -15 -21 -10 -6 -8 -10 5 -15 14 -5
15 -9 5 -19 -9 -9 -14 -9 -20 1 -5 9 -19 -6 -44 -48 -21 -34 -37 -63 -37 -66
0 -2 18 5 40 16 22 11 40 25 40 30 0 6 5 10 11 10 5 0 7 -4 4 -10 -3 -5 0 -7
9 -4 11 4 13 14 9 35 -3 18 -1 29 6 29 6 0 11 -3 11 -7 0 -5 4 -14 8 -21 6 -9
29 -3 93 28 56 27 73 38 50 34 l-34 -6 7 146 c4 80 4 146 -1 145 -4 0 -19 -5
-33 -12z m-140 -97 c0 -5 -4 -10 -10 -10 -5 0 -10 5 -10 10 0 6 5 10 10 10 6
0 10 -4 10 -10z m-33 -27 c-4 -3 -7 0 -7 7 0 7 3 10 7 7 3 -4 3 -10 0 -14z
m138 -33 c-3 -5 -11 -10 -16 -10 -6 0 -7 5 -4 10 3 6 11 10 16 10 6 0 7 -4 4
-10z m45 -25 c0 -8 -2 -15 -4 -15 -2 0 -6 7 -10 15 -3 8 -1 15 4 15 6 0 10 -7
10 -15z m-103 -82 c-4 -3 -7 0 -7 7 0 7 3 10 7 7 3 -4 3 -10 0 -14z"/>
<path d="M1682 310 c0 -19 2 -27 5 -17 2 9 2 25 0 35 -3 9 -5 1 -5 -18z"/>
<path d="M1473 270 c0 -25 2 -35 4 -22 2 12 2 32 0 45 -2 12 -4 2 -4 -23z"/>
<path d="M1450 280 c0 -7 3 -10 7 -7 3 4 3 10 0 14 -4 3 -7 0 -7 -7z"/>
<path d="M1261 264 c0 -11 3 -14 6 -6 3 7 2 16 -1 19 -3 4 -6 -2 -5 -13z"/>
<path d="M1550 260 c0 -7 3 -10 7 -7 3 4 3 10 0 14 -4 3 -7 0 -7 -7z"/>
<path d="M1276 245 c-3 -9 -5 -29 -5 -43 1 -20 3 -17 9 13 8 43 7 57 -4 30z"/>
<path d="M1361 204 c0 -11 3 -14 6 -6 3 7 2 16 -1 19 -3 4 -6 -2 -5 -13z"/>
</g>
</svg>
